<mxfile host="65bd71144e">
    <diagram id="tX2tfaEOyXLPY71XK9M4" name="ページ1">
        <mxGraphModel dx="679" dy="502" grid="1" gridSize="10" guides="1" tooltips="1" connect="1" arrows="1" fold="1" page="1" pageScale="1" pageWidth="827" pageHeight="1169" math="0" shadow="0">
            <root>
                <mxCell id="0"/>
                <mxCell id="1" parent="0"/>
                <mxCell id="2" value="対戦" style="html=1;" vertex="1" parent="1">
                    <mxGeometry x="210" y="260" width="110" height="50" as="geometry"/>
                </mxCell>
                <mxCell id="3" value="手" style="html=1;" vertex="1" parent="1">
                    <mxGeometry x="500" y="180" width="110" height="50" as="geometry"/>
                </mxCell>
                <mxCell id="4" value="player" style="html=1;" vertex="1" parent="1">
                    <mxGeometry x="40" y="260" width="110" height="50" as="geometry"/>
                </mxCell>
                <mxCell id="5" value="対戦結果" style="html=1;" vertex="1" parent="1">
                    <mxGeometry x="210" y="360" width="110" height="50" as="geometry"/>
                </mxCell>
                <mxCell id="6" value="盤面" style="html=1;" vertex="1" parent="1">
                    <mxGeometry x="500" y="320" width="110" height="50" as="geometry"/>
                </mxCell>
                <mxCell id="7" value="マス目" style="html=1;" vertex="1" parent="1">
                    <mxGeometry x="660" y="320" width="110" height="50" as="geometry"/>
                </mxCell>
                <mxCell id="8" value="石" style="html=1;" vertex="1" parent="1">
                    <mxGeometry x="660" y="420" width="110" height="50" as="geometry"/>
                </mxCell>
                <mxCell id="9" value="ターン" style="html=1;" vertex="1" parent="1">
                    <mxGeometry x="360" y="260" width="110" height="50" as="geometry"/>
                </mxCell>
                <mxCell id="10" value="&lt;span style=&quot;background-color: initial;&quot;&gt;石の種類&lt;/span&gt;&lt;br&gt;&lt;span style=&quot;background-color: initial;&quot;&gt;・空&lt;/span&gt;&lt;br&gt;&lt;span style=&quot;background-color: initial;&quot;&gt;・黒&lt;/span&gt;&lt;br&gt;&lt;span style=&quot;background-color: initial;&quot;&gt;・白&lt;/span&gt;" style="shape=note;whiteSpace=wrap;html=1;backgroundOutline=1;darkOpacity=0.05;fillColor=#fff2cc;strokeColor=#d6b656;align=left;" vertex="1" parent="1">
                    <mxGeometry x="840" y="320" width="70" height="100" as="geometry"/>
                </mxCell>
                <mxCell id="13" value="" style="endArrow=none;html=1;strokeColor=default;" edge="1" parent="1" source="4" target="2">
                    <mxGeometry relative="1" as="geometry">
                        <mxPoint x="290" y="220" as="sourcePoint"/>
                        <mxPoint x="450" y="220" as="targetPoint"/>
                    </mxGeometry>
                </mxCell>
                <mxCell id="14" value="1" style="edgeLabel;resizable=0;html=1;align=left;verticalAlign=bottom;fillColor=default;" connectable="0" vertex="1" parent="13">
                    <mxGeometry x="-1" relative="1" as="geometry"/>
                </mxCell>
                <mxCell id="15" value="＊" style="edgeLabel;resizable=0;html=1;align=right;verticalAlign=bottom;fillColor=default;" connectable="0" vertex="1" parent="13">
                    <mxGeometry x="1" relative="1" as="geometry"/>
                </mxCell>
                <mxCell id="16" value="" style="endArrow=none;html=1;strokeColor=default;" edge="1" parent="1" source="2" target="5">
                    <mxGeometry relative="1" as="geometry">
                        <mxPoint x="160" y="295" as="sourcePoint"/>
                        <mxPoint x="220" y="295" as="targetPoint"/>
                    </mxGeometry>
                </mxCell>
                <mxCell id="17" value="1" style="edgeLabel;resizable=0;html=1;align=left;verticalAlign=bottom;fillColor=default;" connectable="0" vertex="1" parent="16">
                    <mxGeometry x="-1" relative="1" as="geometry"/>
                </mxCell>
                <mxCell id="18" value="0..1" style="edgeLabel;resizable=0;html=1;align=right;verticalAlign=bottom;fillColor=default;" connectable="0" vertex="1" parent="16">
                    <mxGeometry x="1" relative="1" as="geometry"/>
                </mxCell>
                <mxCell id="19" value="" style="endArrow=none;html=1;strokeColor=default;" edge="1" parent="1" source="9" target="3">
                    <mxGeometry relative="1" as="geometry">
                        <mxPoint x="400" y="200" as="sourcePoint"/>
                        <mxPoint x="460" y="200" as="targetPoint"/>
                    </mxGeometry>
                </mxCell>
                <mxCell id="20" value="1" style="edgeLabel;resizable=0;html=1;align=left;verticalAlign=bottom;fillColor=default;" connectable="0" vertex="1" parent="19">
                    <mxGeometry x="-1" relative="1" as="geometry"/>
                </mxCell>
                <mxCell id="21" value="1" style="edgeLabel;resizable=0;html=1;align=right;verticalAlign=bottom;fillColor=default;" connectable="0" vertex="1" parent="19">
                    <mxGeometry x="1" relative="1" as="geometry"/>
                </mxCell>
                <mxCell id="22" value="" style="endArrow=none;html=1;strokeColor=default;" edge="1" parent="1" source="2" target="9">
                    <mxGeometry relative="1" as="geometry">
                        <mxPoint x="120" y="360" as="sourcePoint"/>
                        <mxPoint x="180" y="360" as="targetPoint"/>
                    </mxGeometry>
                </mxCell>
                <mxCell id="23" value="1" style="edgeLabel;resizable=0;html=1;align=left;verticalAlign=bottom;fillColor=default;" connectable="0" vertex="1" parent="22">
                    <mxGeometry x="-1" relative="1" as="geometry"/>
                </mxCell>
                <mxCell id="24" value="＊" style="edgeLabel;resizable=0;html=1;align=right;verticalAlign=bottom;fillColor=default;" connectable="0" vertex="1" parent="22">
                    <mxGeometry x="1" relative="1" as="geometry"/>
                </mxCell>
                <mxCell id="25" value="" style="endArrow=none;html=1;strokeColor=default;" edge="1" parent="1" source="6" target="7">
                    <mxGeometry relative="1" as="geometry">
                        <mxPoint x="235" y="140" as="sourcePoint"/>
                        <mxPoint x="295" y="140" as="targetPoint"/>
                    </mxGeometry>
                </mxCell>
                <mxCell id="26" value="1" style="edgeLabel;resizable=0;html=1;align=left;verticalAlign=bottom;fillColor=default;" connectable="0" vertex="1" parent="25">
                    <mxGeometry x="-1" relative="1" as="geometry"/>
                </mxCell>
                <mxCell id="27" value="＊" style="edgeLabel;resizable=0;html=1;align=right;verticalAlign=bottom;fillColor=default;" connectable="0" vertex="1" parent="25">
                    <mxGeometry x="1" relative="1" as="geometry"/>
                </mxCell>
                <mxCell id="28" value="" style="endArrow=none;html=1;strokeColor=default;" edge="1" parent="1" source="7" target="8">
                    <mxGeometry relative="1" as="geometry">
                        <mxPoint x="590" y="400" as="sourcePoint"/>
                        <mxPoint x="650" y="400" as="targetPoint"/>
                    </mxGeometry>
                </mxCell>
                <mxCell id="29" value="1" style="edgeLabel;resizable=0;html=1;align=left;verticalAlign=bottom;fillColor=default;" connectable="0" vertex="1" parent="28">
                    <mxGeometry x="-1" relative="1" as="geometry"/>
                </mxCell>
                <mxCell id="30" value="1" style="edgeLabel;resizable=0;html=1;align=right;verticalAlign=bottom;fillColor=default;" connectable="0" vertex="1" parent="28">
                    <mxGeometry x="1" relative="1" as="geometry"/>
                </mxCell>
                <mxCell id="31" value="" style="endArrow=none;html=1;strokeColor=default;" edge="1" parent="1" source="9" target="6">
                    <mxGeometry relative="1" as="geometry">
                        <mxPoint x="360" y="410" as="sourcePoint"/>
                        <mxPoint x="420" y="410" as="targetPoint"/>
                    </mxGeometry>
                </mxCell>
                <mxCell id="32" value="1" style="edgeLabel;resizable=0;html=1;align=left;verticalAlign=bottom;fillColor=default;" connectable="0" vertex="1" parent="31">
                    <mxGeometry x="-1" relative="1" as="geometry"/>
                </mxCell>
                <mxCell id="33" value="1" style="edgeLabel;resizable=0;html=1;align=right;verticalAlign=bottom;fillColor=default;" connectable="0" vertex="1" parent="31">
                    <mxGeometry x="1" relative="1" as="geometry"/>
                </mxCell>
                <mxCell id="34" value="" style="endArrow=none;dashed=1;html=1;strokeColor=default;" edge="1" parent="1" source="7" target="10">
                    <mxGeometry width="50" height="50" relative="1" as="geometry">
                        <mxPoint x="800" y="240" as="sourcePoint"/>
                        <mxPoint x="850" y="190" as="targetPoint"/>
                    </mxGeometry>
                </mxCell>
            </root>
        </mxGraphModel>
    </diagram>
</mxfile>